#!OML:ASF F:\VICON\USERDATA\INSTALL\rory3\rory3.ASF
:FULLY-SPECIFIED
:DEGREES
119
root -0.19706 16.5894 11.6818 -166.362 -7.87766 -175.75
lowerback -0.199666 0.31524 1.55006
upperback -2.63815 0.352213 2.70427
thorax -2.60273 0.111175 1.90537
lowerneck -14.8898 0.176867 -0.875489
upperneck 33.2097 -2.71834 1.594
head 13.785 -1.9728 0.135136
rclavicle 1.42131e-014 -2.5842e-014
rhumerus 2.86337 -70.6659 -71.3756
rradius 12.7129
rwrist -6.71983
rhand -28.6053 17.8874
rfingers 7.12502
rthumb -1.97048 -12.0832
lclavicle 1.42131e-014 -2.5842e-014
lhumerus 34.193 54.6755 123.84
lradius 11.5144
lwrist -5.542
lhand -27.9945 26.7194
lfingers 7.12502
lthumb -1.38056 56.6947
rfemur -40.9053 1.18218 32.1072
rtibia 49.4626
rfoot -18.5365 -24.3089
rtoes 21.2897
lfemur -55.7328 -11.2548 -12.1833
ltibia 44.9936
lfoot -9.54039 13.7165
ltoes 3.03855
120
root -0.192593 16.5361 11.5635 -166.57 -7.85064 -175.73
lowerback -0.196637 0.332135 1.3707
upperback -2.58394 0.374362 2.73825
thorax -2.55055 0.127853 2.04031
lowerneck -14.56 0.200218 -0.775782
upperneck 32.9764 -2.69808 1.61243
head 13.6088 -1.94952 0.134555
rclavicle -6.31141e-015 6.36111e-015
rhumerus 6.23055 -66.5253 -76.9194
rradius 12.7963
rwrist -10.1049
rhand -28.9982 17.3012
rfingers 7.12502
rthumb -2.34999 -12.6656
lclavicle -6.31141e-015 6.36111e-015
lhumerus 27.5289 46.5812 118.519
lradius 12.0862
lwrist -1.47339
lhand -28.3237 29.0518
lfingers 7.12502
lthumb -1.69852 59.0248
rfemur -40.2205 1.26514 32.2244
rtibia 49.5224
rfoot -19.8842 -24.3085
rtoes 21.8966
lfemur -57.1093 -11.6129 -11.7565
ltibia 44.293
lfoot -8.89809 14.8259
ltoes 9.97788
121
root -0.196918 16.4847 11.4318 -166.951 -7.52805 -175.59
lowerback -0.419051 0.445639 1.37927
upperback -2.29999 0.518475 2.7609
thorax -2.13675 0.203214 2.05606
lowerneck -14.3403 0.174526 -0.736104
upperneck 32.6934 -2.72676 1.68298
head 13.439 -1.93972 0.158051
rclavicle 4.47266e-016 3.4191e-014
rhumerus 8.49922 -61.582 -81.2817
rradius 13.1915
rwrist -14.3459
rhand -28.5882 16.5153
rfingers 7.12502
rthumb -1.95403 -13.4555
lclavicle 4.47266e-016 3.4191e-014
lhumerus 23.0803 37.4337 115.19
lradius 13.0012
lwrist 2.45103
lhand -28.7311 30.9895
lfingers 7.12502
lthumb -2.09204 60.959
rfemur -39.2421 1.39753 32.4628
rtibia 49.6442
rfoot -20.9619 -24.3666
rtoes 21.2752
lfemur -58.1946 -11.7698 -11.3461
ltibia 43.7219
lfoot -8.25147 16.5435
ltoes 13.0634
122
root -0.197604 16.4307 11.3064 -167.249 -7.33392 -175.517
lowerback -0.670947 0.536349 1.34653
upperback -2.04894 0.630068 2.78495
thorax -1.74055 0.262341 2.09906
lowerneck -14.2752 0.133454 -0.862779
upperneck 32.506 -2.77719 1.87758
head 13.35 -1.94225 0.253191
rclavicle -1.5207e-014 -9.14409e-015
rhumerus 9.53812 -56.0397 -84.3422
rradius 13.9635
rwrist -18.852
rhand -27.8428 15.3655
rfingers 7.12502
rthumb -1.2341 -14.6107
lclavicle -1.5207e-014 -9.14409e-015
lhumerus 22.1558 33.0195 116.046
lradius 12.9479
lwrist 1.83822
lhand -29.3069 30.9635
lfingers 7.12502
lthumb -2.64813 60.9268
rfemur -38.3845 1.38938 32.6837
rtibia 49.8363
rfoot -21.8812 -24.5919
rtoes 20.0194
lfemur -59.4271 -11.8335 -11.1012
ltibia 43.2542
lfoot -6.76774 18.5672
ltoes 11.5549
123
root -0.195931 16.3639 11.1833 -167.606 -7.16502 -175.386
lowerback -0.715191 0.59549 1.33446
upperback -1.89646 0.705104 2.84629
thorax -1.56208 0.301066 2.16886
lowerneck -14.1662 0.157435 -0.987849
upperneck 32.3532 -2.72261 2.01316
head 13.2632 -1.91115 0.340025
rclavicle -1.19271e-015 5.68524e-014
rhumerus 9.92088 -49.9974 -86.6843
rradius 14.8825
rwrist -23.4342
rhand -27.5324 14.2565
rfingers 7.12502
rthumb -0.934308 -15.7212
lclavicle -1.19271e-015 5.68524e-014
lhumerus 22.1375 30.8221 118.045
lradius 12.4159
lwrist -0.603299
lhand -29.6408 32.4687
lfingers 7.12502
lthumb -2.97059 62.4278
rfemur -37.5249 1.4828 32.9334
rtibia 50.0684
rfoot -23.1592 -24.8145
rtoes 19.5608
lfemur -60.5095 -11.7837 -10.8653
ltibia 42.9087
lfoot -6.04549 19.9896
ltoes 13.8244
124
root -0.191792 16.2934 11.0617 -168.051 -6.93283 -175.353
lowerback -0.479515 0.662854 1.1269
upperback -1.7458 0.800459 2.96845
thorax -1.5473 0.3533 2.40876
lowerneck -14.3617 0.138573 -1.251
upperneck 32.3605 -2.65359 2.03664
head 13.3102 -1.90017 0.405693
rclavicle -2.15184e-014 -2.42517e-014
rhumerus 10.2644 -43.7382 -88.6963
rradius 15.9309
rwrist -28.3539
rhand -27.9848 13.4131
rfingers 7.12502
rthumb -1.37121 -16.5623
lclavicle -2.15184e-014 -2.42517e-014
lhumerus 21.1905 25.961 118.576
lradius 12.4805
lwrist -0.141723
lhand -27.1927 28.8479
lfingers 7.12502
lthumb -0.606177 58.8268
rfemur -36.6281 1.69235 33.0725
rtibia 50.3355
rfoot -24.3611 -25.1533
rtoes 19.394
lfemur -61.308 -11.5081 -10.9171
ltibia 42.6572
lfoot -6.83068 20.8846
ltoes 18.8959
125
root -0.188776 16.2199 10.9485 -168.398 -6.63666 -175.236
lowerback 0.17937 0.819465 1.08756
upperback -1.87875 1.02852 3.08435
thorax -2.06513 0.466958 2.54
lowerneck -14.6412 0.0763035 -1.60999
upperneck 32.5575 -2.65744 2.06796
head 13.4602 -1.94072 0.476219
rclavicle -4.32357e-015 1.35174e-014
rhumerus 10.066 -37.7775 -90.2045
rradius 17.1778
rwrist -32.9358
rhand -28.4387 12.7003
rfingers 7.12502
rthumb -1.80957 -17.2717
lclavicle -4.32357e-015 1.35174e-014
lhumerus 19.8195 20.7696 118.943
lradius 13.1833
lwrist 0.527783
lhand -25.8362 27.8259
lfingers 7.12502
lthumb 0.703935 57.8044
rfemur -35.8282 1.88865 33.3053
rtibia 50.6037
rfoot -25.8792 -25.2731
rtoes 19.7188
lfemur -62.154 -11.0927 -10.9558
ltibia 42.4622
lfoot -7.66992 21.8942
ltoes 20.4692
126
root -0.191233 16.1383 10.8419 -168.62 -6.29057 -174.717
lowerback 1.37176 0.969195 1.59149
upperback -2.78044 1.27356 3.2393
thorax -3.67074 0.563565 2.39512
lowerneck -13.769 0.273505 -1.82867
upperneck 32.9724 -2.49853 2.01304
head 13.4451 -1.98184 0.509158
rclavicle -6.26172e-015 -1.94809e-014
rhumerus 8.10734 -31.238 -90.7939
rradius 18.8247
rwrist -37.5664
rhand -28.4936 11.8514
rfingers 7.12502
rthumb -1.86265 -18.1202
lclavicle -6.26172e-015 -1.94809e-014
lhumerus 16.3133 9.37174 116.023
lradius 15.6467
lwrist 8.39148
lhand -24.4764 26.6025
lfingers 7.12502
lthumb 2.01731 56.5727
rfemur -35.2212 2.38916 33.8327
rtibia 50.8932
rfoot -27.9767 -24.7766
rtoes 22.1969
lfemur -63.0852 -10.6046 -10.4876
ltibia 42.2784
lfoot -9.6804 22.5731
ltoes 22.9095
127
root -0.197596 16.0643 10.7282 -168.96 -5.93432 -174.288
lowerback 0.125953 1.13535 2.12668
upperback -1.46805 1.42464 3.36977
thorax -1.60889 0.640402 2.24729
lowerneck -15.1801 0.0455412 -2.15215
upperneck 32.2194 -2.35426 2.04044
head 13.4289 -1.82563 0.615095
rclavicle 4.47266e-016 4.77083e-015
rhumerus 11.0488 -26.9545 -93.8821
rradius 19.0275
rwrist -38.8572
rhand -27.176 11.8145
rfingers 7.12502
rthumb -0.590081 -18.1644
lclavicle 4.47266e-016 4.77083e-015
lhumerus 17.0913 -1.18346 114.731
lradius 17.9712
lwrist 13.2082
lhand -24.6339 29.7662
lfingers 7.12502
lthumb 1.86518 59.7378
rfemur -34.5302 2.77382 34.2593
rtibia 51.2241
rfoot -29.4663 -24.537
rtoes 23.4909
lfemur -63.6407 -10.3873 -10.0181
ltibia 42.0621
lfoot -12.8517 22.7553
ltoes 25.9172
128
root -0.192808 15.994 10.6099 -169.374 -5.70055 -173.996
lowerback 0.775248 1.254 2.46734
upperback -1.64501 1.61628 3.41206
thorax -2.15232 0.724479 2.08305
lowerneck -14.448 -0.0416175 -2.57339
upperneck 31.5236 -2.3964 2.36235
head 12.9847 -1.84063 0.818289
rclavicle 3.28989e-014 6.04305e-014
rhumerus 11.0161 -22.3812 -95.4414
rradius 20.3227
rwrist -41.8847
rhand -27.4594 9.98218
rfingers 7.12502
rthumb -0.86381 -19.9958
lclavicle 3.28989e-014 6.04305e-014
lhumerus 16.1048 -10.1821 113.361
lradius 20.5342
lwrist 16.6073
lhand -24.6229 29.6705
lfingers 7.12502
lthumb 1.87579 59.642
rfemur -33.8167 2.96384 34.7102
rtibia 51.6265
rfoot -30.2655 -24.8367
rtoes 23.2055
lfemur -64.0933 -10.6334 -9.34057
ltibia 41.9718
lfoot -17.2033 22.519
ltoes 30.1044
